<svg width="235" height="141" viewBox="0 0 235 141" fill="none" xmlns="http://www.w3.org/2000/svg">
<g id="Frame">
<rect width="235" height="141" fill="#F0F2F2"/>
<g id="Group">
<path id="Vector" d="M159.096 81.3367L153.867 72.1622C156.183 71.0531 157.658 68.7144 157.66 66.1462C157.66 62.4546 154.656 59.451 150.964 59.451H139.78V81.3358H144.753V72.8414H148.712L153.554 81.3367H159.096ZM144.672 68.6167V63.6863H150.032L150.012 63.6947C151.643 63.7823 152.683 64.728 152.683 66.1563C152.683 67.569 151.569 68.559 149.909 68.6179H144.672V68.6167ZM119.468 81.3367V59.451H135.819V63.6269H124.576V68.0053H134.434V72.2742H124.576V76.9427H136.376V81.3367H119.468ZM96.1456 81.3367L90.9162 72.1622C93.2322 71.0531 94.7072 68.714 94.7093 66.1462C94.7093 62.4546 91.7058 59.451 88.0141 59.451H76.829V81.3358H81.8032V72.8414H85.763L90.6038 81.3367H96.1456ZM81.7203 68.6167V63.6863H87.0815L87.0604 63.6947C88.6921 63.7823 89.7326 64.728 89.7326 66.1563C89.7326 67.569 88.6184 68.559 86.9577 68.6179H81.7203V68.6167ZM63.5742 81.8761C69.5582 81.8761 73.1319 78.4354 73.1319 72.6734V59.467H68.0242V72.3319C68.0242 75.4475 66.4022 77.2345 63.5746 77.2345H63.5717C60.7441 77.2345 59.123 75.4479 59.123 72.3319V59.467H54.0132V72.6742C54.0132 78.4359 57.5869 81.8765 63.5717 81.8765H63.5742V81.8761ZM47.3327 69.2155C50.2803 70.2206 51.717 72.7281 51.717 75.146C51.717 78.5525 48.9509 81.3257 45.5473 81.3367H33.4653V59.4493H44.5932C47.4898 59.4763 49.8251 61.8306 49.8285 64.7276C49.8322 66.5551 48.8873 68.2537 47.3327 69.2146V69.2155ZM38.4795 77.253H44.0639C45.8194 77.253 46.7377 75.9439 46.7377 74.6495C46.7377 73.6069 45.9086 72.139 44.0639 72.139H38.4795V77.253ZM42.5686 68.0567C43.8546 68.0567 44.8635 67.0633 44.8635 65.795C44.8635 64.5688 43.8108 63.5334 42.5678 63.5334H38.4795V68.0567H42.5686Z" fill="black"/>
<g id="Group_2">
<path id="Vector_2" d="M112.341 69.2111C115.288 70.2154 116.725 72.7238 116.725 75.1416C116.725 78.5486 113.959 81.3205 110.555 81.3323L98.4735 81.3315V59.445L109.6 59.4446C112.497 59.472 114.832 61.8266 114.836 64.7241C114.839 66.5516 113.895 68.2498 112.34 69.2103L112.341 69.2111ZM103.487 77.2487H109.071C110.827 77.2487 111.745 75.9396 111.745 74.6452C111.745 73.603 110.915 72.1347 109.071 72.1347H103.487V77.2487ZM107.575 68.0523C108.863 68.0523 109.872 67.059 109.872 65.7907C109.872 64.5645 108.819 63.5291 107.575 63.5291H103.487V68.0523H107.575Z" fill="black"/>
</g>
<path id="Vector_3" d="M180.741 81.3366L175.512 72.1621C177.828 71.053 179.303 68.7139 179.305 66.1461C179.305 62.4545 176.302 59.4509 172.61 59.4509H161.425V81.3357H166.399V72.8413H170.359L175.2 81.3366H180.742H180.741ZM166.316 68.6166V63.6862H171.677L171.656 63.6946C173.288 63.7822 174.329 64.7279 174.329 66.1562C174.329 67.5689 173.215 68.5589 171.553 68.6178H166.316V68.6166ZM188.009 81.3366V72.4185L179.327 59.4509H185.705L190.703 66.9752L195.722 59.4509H202.1L193.397 72.4185V81.3366H188.009Z" fill="black"/>
</g>
</g>
</svg>
